<svg xmlns="http://www.w3.org/2000/svg" version="1.1" xmlns:xlink="http://www.w3.org/1999/xlink" xmlns:svgjs="http://svgjs.com/svgjs" width="1920" height="1080" preserveAspectRatio="none" viewBox="0 0 1920 1080"><g mask="url(&quot;#SvgjsMask1114&quot;)" fill="none"><rect width="1920" height="1080" x="0" y="0" fill="#0e2a47"></rect><path d="M1818.949,1156.776C1924.106,1153.831,2026.075,1106.044,2076.234,1013.574C2124.417,924.747,2096.18,821.555,2049.362,732C1997.697,633.173,1930.44,523.857,1818.949,521.428C1704.986,518.945,1626.075,622.063,1570.464,721.567C1516.582,817.978,1480.67,932.804,1535.432,1028.718C1590.54,1125.238,1707.849,1159.887,1818.949,1156.776" fill="rgba(28, 83, 142, 0.4)" class="triangle-float2"></path><path d="M1550.821,1014.531C1598.218,1018.084,1652.036,1010.535,1676.004,969.491C1700.098,928.231,1677.942,878.995,1654.169,837.549C1630.235,795.823,1598.908,752.489,1550.821,751.25C1501.222,749.972,1459.219,787.213,1437.816,831.974C1419.008,871.309,1431.465,915.806,1454.413,952.878C1475.932,987.641,1510.051,1011.474,1550.821,1014.531" fill="rgba(28, 83, 142, 0.4)" class="triangle-float1"></path><path d="M1248.287,666.271C1286.646,665.231,1318.731,642.441,1340.134,610.591C1365.045,573.522,1389.189,527.774,1367.651,488.648C1345.679,448.733,1293.845,443.049,1248.287,443.738C1204.281,444.404,1157.279,454.2,1135.017,492.166C1112.56,530.465,1123.174,578.604,1147.385,615.818C1169.364,649.602,1207.998,667.364,1248.287,666.271" fill="rgba(28, 83, 142, 0.4)" class="triangle-float1"></path><path d="M319.937,1158.99C365.424,1160.53,400.365,1123.919,423.399,1084.665C446.788,1044.807,462.296,996.103,438.909,956.243C415.721,916.721,365.622,904.786,319.937,908.327C280.329,911.397,248.06,937.576,229.128,972.502C211.156,1005.655,211.425,1044.144,227.935,1078.049C247.102,1117.409,276.183,1157.509,319.937,1158.99" fill="rgba(28, 83, 142, 0.4)" class="triangle-float3"></path><path d="M262.658,502.469C363.288,498.301,453.895,439.295,499.429,349.46C541.135,267.177,514.345,173.935,470.25,92.907C423.492,6.986,360.29,-79.556,262.658,-85.625C156.409,-92.229,59.688,-27.331,4.971,63.985C-51.405,158.069,-66.28,276.026,-10.708,370.588C44.232,464.075,154.316,506.956,262.658,502.469" fill="rgba(28, 83, 142, 0.4)" class="triangle-float3"></path><path d="M831.222,294.096C902.212,290.179,971.053,265.159,1009.272,205.207C1050.559,140.442,1058.652,59.608,1024.588,-9.231C986.256,-86.697,917.585,-158.04,831.222,-154.614C748.336,-151.326,703.541,-67.087,662.721,5.125C622.853,75.653,574.73,156.945,615.54,226.933C656.193,296.651,750.64,298.542,831.222,294.096" fill="rgba(28, 83, 142, 0.4)" class="triangle-float3"></path></g><defs><mask id="SvgjsMask1114"><rect width="1920" height="1080" fill="#ffffff"></rect></mask><style>
            @keyframes float1 {
                0%{transform: translate(0, 0)}
                50%{transform: translate(-10px, 0)}
                100%{transform: translate(0, 0)}
            }

            .triangle-float1 {
                animation: float1 5s infinite;
            }

            @keyframes float2 {
                0%{transform: translate(0, 0)}
                50%{transform: translate(-5px, -5px)}
                100%{transform: translate(0, 0)}
            }

            .triangle-float2 {
                animation: float2 4s infinite;
            }

            @keyframes float3 {
                0%{transform: translate(0, 0)}
                50%{transform: translate(0, -10px)}
                100%{transform: translate(0, 0)}
            }

            .triangle-float3 {
                animation: float3 6s infinite;
            }
        </style></defs></svg>